<?xml version="1.0" encoding="utf-8"?>
<!-- Generator: Adobe Illustrator 27.2.0, SVG Export Plug-In . SVG Version: 6.00 Build 0)  -->
<svg version="1.1" id="Layer_1" xmlns="http://www.w3.org/2000/svg" xmlns:xlink="http://www.w3.org/1999/xlink" x="0px" y="0px"
	 viewBox="0 0 512 512" style="enable-background:new 0 0 512 512;" xml:space="preserve">
<g>
	<path d="M36.4,237.3c14.2,0,26.4,0,40.8,0c0-12.6,0-24.9,0-37.1c0-26.2,7.5-33.8,33.4-33.9c33,0,66,0,98.9,0c4.6,0,9.2,0,14.5,0
		c0-9.3,0-17.1,0-26.4c-18.2,0-35.7,0-53.1,0c-9.1,0-17.1-2.2-21.2-11.4c-6.1-13.8,3.6-26.3,21-26.4c42.4-0.2,84.8-0.1,127.2-0.1
		c6.4,0,12.9-0.2,19.3,0.1c13.3,0.6,21.4,8.3,21.1,19.4c-0.3,10.6-8.1,18-20.8,18.3c-17.9,0.4-35.9,0.1-54.9,0.1
		c0,8.7,0,16.6,0,26.4c17.1,0,34.6,0.8,51.9-0.2c21.4-1.2,39.6,4.6,55.1,19.5c5.8,5.6,12.5,10.4,18.9,15.5
		c14.1,11.1,20.8,25.6,20.8,43.5c-0.1,37.3,0.2,74.5-0.1,111.8c-0.2,31-21.4,52.9-52.4,53.2c-50.1,0.5-100.2,0.3-150.3,0.1
		c-17.6-0.1-32.5-6.8-43.3-21.2c-0.5-0.7-1.1-1.3-1.5-2.1c-12.5-22.1-30-32.2-56.5-28.6c-18,2.4-27.4-8.9-27.7-27.3
		c-0.2-15.8-0.2-31.7,0-47.5c0.1-6.4-2.1-8.8-8.8-9.3c-32-2-32-2.2-32,29.7c0,9.4,0.3,18.9-0.1,28.3c-0.5,12.4-7,19.1-17.8,19.2
		c-10.8,0.1-18.1-6.6-18.2-18.8c-0.3-51-0.3-101.9,0-152.9c0.1-12.1,7.7-18.8,18.6-18.3c11.6,0.5,16.8,7.6,17.4,18.3
		c0.5,9.4,0.2,18.8,0.2,28.3C36.4,216.9,36.4,226.3,36.4,237.3z M153,282c15.9,0,27-10.8,26.9-26.3c-0.1-15-10.8-25.6-26-25.8
		c-16.1-0.3-27.3,10.2-27.5,25.6C126.2,271,137.2,282,153,282z M229.9,282c16,0.2,27.1-10.5,27.2-25.9c0.1-15-10.5-25.8-25.7-26.2
		c-16.1-0.4-27.4,9.9-27.8,25.3C203.1,270.7,214.1,281.9,229.9,282z M307.4,229.9c-15.9,0-26.9,10.9-26.8,26.4
		c0.2,15,10.9,25.5,26.1,25.7c16,0.2,27.2-10.3,27.4-25.7C334.3,240.8,323.3,229.9,307.4,229.9z"/>
	<path d="M511.9,307c0,24.8,0.1,49.6,0,74.4c-0.1,19.2-9.2,28.1-28.3,28.5c-42.2,0.9-46.5-3.2-46.5-45c0-43.2-0.1-86.4,0-129.5
		c0-21.7,8.7-30.2,30.3-30.4c40.6-0.3,44.6,3.6,44.6,44.4C512,268.5,512,287.7,511.9,307z"/>
</g>
</svg>
