<?xml version="1.0" encoding="utf-8"?>
<!-- Generator: Adobe Illustrator 27.2.0, SVG Export Plug-In . SVG Version: 6.00 Build 0)  -->
<svg version="1.1" id="Layer_1" xmlns="http://www.w3.org/2000/svg" xmlns:xlink="http://www.w3.org/1999/xlink" x="0px" y="0px"
	 viewBox="0 0 100 125" style="enable-background:new 0 0 100 125;" xml:space="preserve">
<g>
	<g>
		<path d="M50,2.9C24,2.9,2.9,24,2.9,50S24,97.1,50,97.1S97.1,76,97.1,50S76,2.9,50,2.9z M73.9,52.3c0,1.7-1.4,3.1-3.1,3.1H52.3
			v13.9c0,1.7-1.4,3.1-3.1,3.1c-1.7,0-3.1-1.4-3.1-3.1V55.4H32.2v13.9c0,1.7-1.4,3.1-3.1,3.1S26,71,26,69.3V30.7
			c0-1.7,1.4-3.1,3.1-3.1s3.1,1.4,3.1,3.1v18.5h13.9V30.7c0-1.7,1.4-3.1,3.1-3.1c1.7,0,3.1,1.4,3.1,3.1v18.5h15.4V30.7
			c0-1.7,1.4-3.1,3.1-3.1s3.1,1.4,3.1,3.1C73.9,30.7,73.9,52.3,73.9,52.3z"/>
	</g>
</g>
</svg>
