<?xml version="1.0" encoding="utf-8"?>
<!-- Generator: Adobe Illustrator 27.2.0, SVG Export Plug-In . SVG Version: 6.00 Build 0)  -->
<svg version="1.1" id="Layer_1" xmlns="http://www.w3.org/2000/svg" xmlns:xlink="http://www.w3.org/1999/xlink" x="0px" y="0px"
	 viewBox="0 0 512 512" style="enable-background:new 0 0 512 512;" xml:space="preserve">
<path d="M255.9,0C397.3,0,512,114.5,512,255.9S397.5,512,256.1,512S0,397.5,0,256.1C0,188.2,27,123,75,75
	C122.9,26.9,188-0.1,255.9,0z M272.9,341.9c12.2,9.4,14.4,26.8,5.1,39c-9.4,12.2-26.8,14.4-39,5.1c-12.2-9.4-14.4-26.8-5.1-39
	c1.5-1.9,3.2-3.6,5.1-5.1v-56.1h-62.7v56.1c12.2,9.4,14.4,26.8,5.1,39c-9.4,12.2-26.8,14.4-39,5.1c-12.2-9.4-14.4-26.8-5.1-39
	c1.5-1.9,3.2-3.6,5.1-5.1V192.3c-12.2-9.4-14.4-26.8-5.1-39c9.4-12.2,26.8-14.4,39-5.1c12.2,9.4,14.4,26.8,5.1,39
	c-1.5,1.9-3.2,3.6-5.1,5.1v59.6H239v-59.6c-12.2-9.4-14.4-26.8-5.1-39s26.8-14.4,39-5.1c12.2,9.4,14.4,26.8,5.1,39
	c-1.5,1.9-3.2,3.6-5.1,5.1v59.6h62.7v-59.6c-12.2-9.4-14.4-26.8-5.1-39c9.4-12.2,26.8-14.4,39-5.1s14.4,26.8,5.1,39
	c-1.5,1.9-3.2,3.6-5.1,5.1v74.3c0,0.7,0,1.4,0,2.2c0,9.4-7.6,17-17,17h-79.7V341.9z M410.3,101.3c-85.4-85.3-223.7-85.2-309,0.1
	s-85.2,223.7,0.1,309s223.7,85.2,309-0.1c40.9-41,63.9-96.5,63.9-154.4c0.1-58-22.9-113.6-63.9-154.6L410.3,101.3z"/>
</svg>
