<svg xmlns="http://www.w3.org/2000/svg" xmlns:xlink="http://www.w3.org/1999/xlink" xmlns:serif="http://www.serif.com/" viewBox="0 0 32 40" version="1.1" xml:space="preserve" style="" x="0px" y="0px" fill-rule="evenodd" clip-rule="evenodd" stroke-linejoin="round" stroke-miterlimit="2"><g transform="matrix(1,0,0,1,-96,-96)"><path d="M100.041,116L102,116C102.552,116 103,115.552 103,115C103,114.448 102.552,114 102,114L100.041,114C100.253,111.439 101.27,109.105 102.839,107.253L104.222,108.636C104.612,109.026 105.246,109.026 105.636,108.636C106.026,108.246 106.026,107.612 105.636,107.222L104.253,105.839C106.106,104.27 108.439,103.253 111,103.041L111,105C111,105.552 111.448,106 112,106C112.552,106 113,105.552 113,105L113,103.041C115.561,103.253 117.895,104.27 119.747,105.839L118.364,107.222C117.974,107.612 117.974,108.246 118.364,108.636C118.754,109.026 119.388,109.026 119.778,108.636L121.161,107.253C122.73,109.106 123.747,111.439 123.959,114L122,114C121.448,114 121,114.448 121,115C121,115.552 121.448,116 122,116L123.959,116C123.794,117.999 123.138,119.859 122.112,121.46C121.814,121.925 121.95,122.544 122.414,122.842C122.879,123.14 123.498,123.004 123.796,122.54C125.191,120.363 126,117.775 126,115C126,107.273 119.727,101 112,101C104.273,101 98,107.273 98,115C98,117.775 98.809,120.363 100.204,122.54C100.502,123.004 101.121,123.14 101.586,122.842C102.05,122.544 102.186,121.925 101.888,121.46C100.862,119.859 100.206,117.999 100.041,116Z"/><path d="M112.548,117.05C112.371,117.017 112.187,117 112,117C110.344,117 109,118.344 109,120C109,121.656 110.344,123 112,123C113.656,123 115,121.656 115,120C115,119.256 114.729,118.575 114.28,118.051L117.485,112.5C117.761,112.022 117.597,111.41 117.119,111.134C116.641,110.858 116.029,111.022 115.753,111.5L112.548,117.05Z"/></g><text x="0" y="47" fill="#000000" font-size="5px" font-weight="bold" font-family="'Helvetica Neue', Helvetica, Arial-Unicode, Arial, Sans-serif">Created by Alfan Zulkarnain</text><text x="0" y="52" fill="#000000" font-size="5px" font-weight="bold" font-family="'Helvetica Neue', Helvetica, Arial-Unicode, Arial, Sans-serif">from the Noun Project</text></svg>