<?xml version="1.0" encoding="UTF-8"?>
<svg id="Capa_1" data-name="Capa 1" xmlns="http://www.w3.org/2000/svg" viewBox="0 0 2033.12 1209.69">
  <path d="m2032.18,26.67c-15.5,53.5-76,83.1-131.7,82.5-55.7-.6-108.1-24.3-159.7-45.3-84.6-34.6-173.9-53.6-264.9-59.6-95.9-6.3-196.5-6.3-292.1,4.6-80,9.1-166,28.3-231.1,77.8-9.81,7.46-18.49,14.83-26.49,22.38-2.25,2.12-4.44,4.24-6.57,6.34-30.93-20.32-63.75-37.76-98.04-52.05-72.1-29.9-149.3-45.4-227.4-45.4-240.3,0-456.9,145.2-548.9,367.8-92,222.7-41.2,479,128.8,649.4,169.9,170.4,425.5,221.4,647.5,129.2,158.05-65.64,276.98-194.7,332.38-350.57,38.23-12.17,77.58-21.5,113.62-39.4,55.3-27.5,112.5-76.8,144.9-129.4,38.1-62,127.4-85.9,196.7-73.7,32.6,5.7,63.4,18.9,95.9,25.1,32.4,6.2,68.9,4.4,94.5-16.5,19.1-15.6,29.5-40,31.7-64.6,2.2-24.6-3.1-49.3-11-72.6,5,25.2-10.8,51.3-33.2,64-22.4,12.7-49.7,13.8-75,9.3-70.1-12.3-127.7-70.6-200.3-67.4-22.9,1-45.4,5.8-68,9.2-44,6.7-88.6,8.5-133,8.3-22.3-.1-44.5-.6-66.8-1.3-18.7-.5-37.4,1-55.2-6-4.3-1.7-8.2-3.8-11.6-6.1-31.7-22-19.5-68.2,16.2-84.8,22.1-10.1,47.2-10.3,71.5-12.2,45.5-3.5,87.7-15.1,131.1-28.3,36.2-11,67.5-34.8,97.5-58.3,24.1-18.8,47.3-39.4,75-52.1,103.7-47.5,228.1,29.7,337.7-2,78.9-22.8,135-106.8,126-188.3ZM325.08,316.44c43.7-39.9,93.5-69.6,149.9-87.9,3-1,6.1-1.7,9.1-2.8,4.2-1.5,7.5-.2,10.9,2.4,24.3,18.9,39,42.4,37.1,74.5-.5,8.7-.1,17.5-.1,26.2h.4c-.9,22.2-2,44.4-2.8,66.6-.2,5.8-2.7,9.5-8.3,11.6-19.3,6.9-36.5,17.4-51.8,31.1-6.2,5.5-12.5,5.9-19.7,2.2-15.6-8-31.2-15.7-46.9-23.5-15.7-7.7-31.2-15.7-47.1-22.9-21.9-10-35.1-26.2-39.4-50.1-2.9-16.4-3.5-16.3,8.7-27.4Zm-47.6,412c-19.4,9.1-38.7,6.5-57.4-2-3-1.3-5.7-5.6-6.4-9-4.5-20.5-9.2-41.1-12.5-61.8-4.2-26.8-3.9-54-1.6-80.9,1.6-19.3,6-38.4,9-57.6.8-4.8,3.3-7.8,8-9.4,4.5-1.5,8.9-3.3,13.3-5.2,19.1-8.2,37.2-5.9,54.6,5,13.1,8.3,26.3,16.4,39.2,25,20.8,13.9,41.4,28.1,62.3,42.3-1,27.7-1.8,53.1-3.1,78.5-.2,3-2.5,6.8-5,8.5-28.4,19.8-57,39.2-85.6,58.6-4.7,3.2-9.8,5.7-14.8,8Zm256,226.1c-.6,9.5-2.1,18.9-4.2,28.1-1.3,5.6-4.6,10.7-7.3,16.6-30.8-5.2-58.3-14.4-84.9-25.9-42.8-18.5-80.6-44.5-114.7-76-7.3-6.8-7.5-7.6-2.8-16.2,9.9-18.2,23.9-32.9,41.8-43.2,23.8-13.6,48.1-26.3,72.3-39.2,4.5-2.4,9.4-4.4,14.3-5.9,7.4-2.3,15-2.4,22,1.6,18.3,10.4,36.6,20.8,54.7,31.5,2.3,1.4,4.3,4.6,4.8,7.3,1.2,6.2,1.5,12.6,1.9,18.9,2.4,34.2,4.4,68.3,2.1,102.4Zm157.6-346c-2.2,59.2-47.9,93.4-94.9,93.6-51.3-.2-93.5-43-93.3-94.9.1-51.4,45-93.9,95.3-93,50.3.9,94.8,44.3,92.9,94.3Zm35.51-168.51c-.57-.31-1.14-.64-1.71-.99-11.7-7.5-23.5-14.8-35-22.6-13.2-8.9-19.2-22-20.2-37.4-1-15-1.3-30.1-1.8-45.2-.2-4.8,0-9.5,0-14.3h-.2c-.2-13.9-.3-27.8-.2-41.7.1-11.6,4.3-21.9,12.5-30,7-7,14.7-13.3,22.1-19.9,3.5-3.1,7.1-2.2,11.1-1,34.41,10.64,66.69,25.33,96.66,44.45-39.08,67.68-65.47,123.62-83.25,168.64Z"/>
</svg>