<?xml version="1.0" encoding="utf-8"?>
<!-- Generator: Adobe Illustrator 27.2.0, SVG Export Plug-In . SVG Version: 6.00 Build 0)  -->
<svg version="1.1" id="Capa_1" xmlns="http://www.w3.org/2000/svg" xmlns:xlink="http://www.w3.org/1999/xlink" x="0px" y="0px"
	 viewBox="0 0 2500 1650" style="enable-background:new 0 0 2500 1650;" xml:space="preserve">
<style type="text/css">
	.st0{font-family:'Gardenia-Black';}
	.st1{font-size:370.1826px;}
</style>
<g>
	<g>
		<path d="M945.3,625.4c-6.7,23-32.7,35.7-56.6,35.4c-23.9-0.3-46.4-10.4-68.6-19.5c-36.4-14.9-74.7-23-113.8-25.6
			c-41.2-2.7-84.4-2.7-125.5,2c-34.4,3.9-71.3,12.2-99.3,33.4c-4.2,3.2-7.9,6.4-11.4,9.6c-1,0.9-1.9,1.8-2.8,2.7
			c-13.3-8.7-27.4-16.2-42.1-22.4c-31-12.8-64.2-19.5-97.7-19.5c-103.3,0-196.3,62.4-235.9,158c-39.5,95.7-17.7,205.8,55.3,279
			c73,73.2,182.8,95.1,278.2,55.5c67.9-28.2,119-83.7,142.8-150.6c16.4-5.2,33.3-9.2,48.8-16.9c23.8-11.8,48.3-33,62.3-55.6
			c16.4-26.6,54.7-36.9,84.5-31.7c14,2.4,27.2,8.1,41.2,10.8c13.9,2.7,29.6,1.9,40.6-7.1c8.2-6.7,12.7-17.2,13.6-27.8
			s-1.3-21.2-4.7-31.2c2.1,10.8-4.6,22-14.3,27.5c-9.6,5.5-21.4,5.9-32.2,4c-30.1-5.3-54.9-30.3-86.1-29c-9.8,0.4-19.5,2.5-29.2,4
			c-18.9,2.9-38.1,3.7-57.1,3.6c-9.6,0-19.1-0.3-28.7-0.6c-8-0.2-16.1,0.4-23.7-2.6c-1.8-0.7-3.5-1.6-5-2.6
			c-13.6-9.5-8.4-29.3,7-36.4c9.5-4.3,20.3-4.4,30.7-5.2c19.6-1.5,37.7-6.5,56.3-12.2c15.6-4.7,29-15,41.9-25.1
			c10.4-8.1,20.3-16.9,32.2-22.4c44.6-20.4,98,12.8,145.1-0.9C925,696.5,949.1,660.4,945.3,625.4z M211.8,749.9
			c18.8-17.1,40.2-29.9,64.4-37.8c1.3-0.4,2.6-0.7,3.9-1.2c1.8-0.6,3.2-0.1,4.7,1c10.4,8.1,16.8,18.2,15.9,32c-0.2,3.7,0,7.5,0,11.3
			h0.2c-0.4,9.5-0.9,19.1-1.2,28.6c-0.1,2.5-1.2,4.1-3.6,5c-8.3,3-15.7,7.5-22.3,13.4c-2.7,2.4-5.4,2.5-8.5,0.9
			c-6.7-3.4-13.4-6.7-20.2-10.1c-6.7-3.3-13.4-6.7-20.2-9.8c-9.4-4.3-15.1-11.3-16.9-21.5C206.8,754.6,206.5,754.7,211.8,749.9z
			 M191.3,927c-8.3,3.9-16.6,2.8-24.7-0.9c-1.3-0.6-2.4-2.4-2.7-3.9c-1.9-8.8-4-17.7-5.4-26.6c-1.8-11.5-1.7-23.2-0.7-34.8
			c0.7-8.3,2.6-16.5,3.9-24.7c0.3-2.1,1.4-3.4,3.4-4c1.9-0.6,3.8-1.4,5.7-2.2c8.2-3.5,16-2.5,23.5,2.1c5.6,3.6,11.3,7,16.8,10.7
			c8.9,6,17.8,12.1,26.8,18.2c-0.4,11.9-0.8,22.8-1.3,33.7c-0.1,1.3-1.1,2.9-2.1,3.7c-12.2,8.5-24.5,16.8-36.8,25.2
			C195.6,924.9,193.5,926,191.3,927z M301.3,1024.1c-0.3,4.1-0.9,8.1-1.8,12.1c-0.6,2.4-2,4.6-3.1,7.1c-13.2-2.2-25.1-6.2-36.5-11.1
			c-18.4-7.9-34.6-19.1-49.3-32.7c-3.1-2.9-3.2-3.3-1.2-7c4.3-7.8,10.3-14.1,18-18.6c10.2-5.8,20.7-11.3,31.1-16.8
			c1.9-1,4-1.9,6.1-2.5c3.2-1,6.4-1,9.5,0.7c7.9,4.5,15.7,8.9,23.5,13.5c1,0.6,1.8,2,2.1,3.1c0.5,2.7,0.6,5.4,0.8,8.1
			C301.4,994.8,302.3,1009.4,301.3,1024.1z M369,875.4c-0.9,25.4-20.6,40.1-40.8,40.2c-22-0.1-40.2-18.5-40.1-40.8
			c0-22.1,19.3-40.3,40.9-40C350.7,835.3,369.8,853.9,369,875.4z M384.3,803c-0.2-0.1-0.5-0.3-0.7-0.4c-5-3.2-10.1-6.4-15-9.7
			c-5.7-3.8-8.2-9.5-8.7-16.1c-0.4-6.4-0.6-12.9-0.8-19.4c-0.1-2.1,0-4.1,0-6.1H359c-0.1-6-0.1-11.9-0.1-17.9c0-5,1.8-9.4,5.4-12.9
			c3-3,6.3-5.7,9.5-8.6c1.5-1.3,3.1-0.9,4.8-0.4c14.8,4.6,28.7,10.9,41.5,19.1C403.3,759.6,391.9,783.7,384.3,803z"/>
	</g>
	<text transform="matrix(1 0 0 1 907.2191 968.889)" class="st0 st1">OnlyCars</text>
</g>
</svg>
