<?xml version="1.0" encoding="utf-8"?>
<!-- Generator: Adobe Illustrator 27.2.0, SVG Export Plug-In . SVG Version: 6.00 Build 0)  -->
<svg version="1.1" id="Capa_1" xmlns="http://www.w3.org/2000/svg" xmlns:xlink="http://www.w3.org/1999/xlink" x="0px" y="0px"
	 viewBox="0 0 2500 1650" style="enable-background:new 0 0 2500 1650;" xml:space="preserve">
<path d="M1339,646.4c-29.9-72.3-73.6-138-128.8-193.3c-55.2-55.3-120.7-99.2-192.7-129.2c-72.1-29.9-149.3-45.4-227.4-45.4
	c-240.3,0-456.9,145.2-548.9,367.8c-92,222.7-41.2,479,128.8,649.4c169.9,170.4,425.5,221.4,647.5,129.2
	c222-92.2,366.8-309.5,366.8-550.5C1384.2,796.2,1368.9,718.7,1339,646.4z M792.5,1310.8c-246.3-0.1-444.7-198.7-441.9-447.6
	c2.8-242.6,199.1-437.6,444.6-436.5c247.5,1.1,442,204.5,438.9,442.8C1236.5,1104.4,1044.9,1310.8,792.5,1310.8z M1178.9,769.4
	c-0.9-5.2-3.6-8.6-8.8-10.1c-17.1-4.8-34.1-6.7-51.5-1.1c-15,4.8-28.1,12.8-40.9,21.7c-17.2,12.1-34.7,23.9-52.2,35.6
	c-4.9,3.2-10.5,5.3-15.6,7.9c-1,22.2-1.8,43.6-3,65c-0.9,17.2,6,29.9,20.5,38.9c3,1.9,6,4,9,5.9c14.5,9,29,18.1,43.6,27.1
	c11.9,7.3,23.6,14.8,35.8,21.4c17.1,9.3,35.1,8.4,53.2,3c3.9-1.2,6.1-3.2,7.2-6.9c8-28.4,13.3-57.3,14.4-86.7
	c0.8-20.6,0.3-41.3-1.7-61.8C1186.9,809.1,1182.3,789.3,1178.9,769.4z"/>
<g>
	<path d="M858.3,709.2C791.7,681.6,715,696.8,664.1,748c-51,51.1-66.2,128-38.6,194.8c27.6,66.8,92.6,110.3,164.7,110.3l0,0
		c23.4,0,46.6-4.6,68.2-13.5c21.6-9,41.3-22.1,57.9-38.7c16.6-16.6,29.7-36.3,38.6-58c8.9-21.7,13.5-45,13.5-68.4
		C968.3,802.1,924.9,736.9,858.3,709.2z M887,869.1c-2.2,59.2-47.9,93.4-94.9,93.6c-51.3-0.2-93.5-43-93.3-94.9
		c0.1-51.4,45-93.9,95.3-93C844.4,775.7,888.9,819.1,887,869.1z"/>
	<path d="M795.2,426.7c-245.4-1.1-441.8,193.9-444.6,436.5c-2.8,248.9,195.6,447.6,441.9,447.6c252.4,0.1,444-206.3,441.6-441.3
		C1237.1,631.2,1042.7,427.8,795.2,426.7z M863.4,538.4c0.1-11.6,4.3-21.9,12.5-30c7-7,14.7-13.3,22.1-19.9c3.5-3.1,7.1-2.2,11.1-1
		c47.2,14.6,90.4,36.8,129.1,67.6c12.1,9.6,22.9,20.9,34.8,30.8c6.9,5.7,6.7,11.5,3.7,19c-8.8,21.5-24.4,37.1-43.6,49.1
		c-12.4,7.7-25.7,14.1-38.7,20.9c-16.2,8.4-32.7,16.5-48.8,25.1c-8.6,4.6-16.6,4.7-24.8-0.4c-11.7-7.5-23.5-14.8-35-22.6
		c-13.2-8.9-19.2-22-20.2-37.4c-1-15-1.3-30.1-1.8-45.2c-0.2-4.8,0-9.5,0-14.3h-0.2C863.4,566.2,863.3,552.3,863.4,538.4z M521,577
		c43.7-39.9,93.5-69.6,149.9-87.9c3-1,6.1-1.7,9.1-2.8c4.2-1.5,7.5-0.2,10.9,2.4c24.3,18.9,39,42.4,37.1,74.5
		c-0.5,8.7-0.1,17.5-0.1,26.2c0.1,0,0.3,0,0.4,0c-0.9,22.2-2,44.4-2.8,66.6c-0.2,5.8-2.7,9.5-8.3,11.6
		c-19.3,6.9-36.5,17.4-51.8,31.1c-6.2,5.5-12.5,5.9-19.7,2.2c-15.6-8-31.2-15.7-46.9-23.5c-15.7-7.7-31.2-15.7-47.1-22.9
		c-21.9-10-35.1-26.2-39.4-50.1C509.4,588,508.8,588.1,521,577z M473.4,989c-19.4,9.1-38.7,6.5-57.4-2c-3-1.3-5.7-5.6-6.4-9
		c-4.5-20.5-9.2-41.1-12.5-61.8c-4.2-26.8-3.9-54-1.6-80.9c1.6-19.3,6-38.4,9-57.6c0.8-4.8,3.3-7.8,8-9.4c4.5-1.5,8.9-3.3,13.3-5.2
		c19.1-8.2,37.2-5.9,54.6,5c13.1,8.3,26.3,16.4,39.2,25c20.8,13.9,41.4,28.1,62.3,42.3c-1,27.7-1.8,53.1-3.1,78.5
		c-0.2,3-2.5,6.8-5,8.5c-28.4,19.8-57,39.2-85.6,58.6C483.5,984.2,478.4,986.7,473.4,989z M729.4,1215.1c-0.6,9.5-2.1,18.9-4.2,28.1
		c-1.3,5.6-4.6,10.7-7.3,16.6c-30.8-5.2-58.3-14.4-84.9-25.9c-42.8-18.5-80.6-44.5-114.7-76c-7.3-6.8-7.5-7.6-2.8-16.2
		c9.9-18.2,23.9-32.9,41.8-43.2c23.8-13.6,48.1-26.3,72.3-39.2c4.5-2.4,9.4-4.4,14.3-5.9c7.4-2.3,15-2.4,22,1.6
		c18.3,10.4,36.6,20.8,54.7,31.5c2.3,1.4,4.3,4.6,4.8,7.3c1.2,6.2,1.5,12.6,1.9,18.9C729.7,1146.9,731.7,1181,729.4,1215.1z
		 M790.1,1053.1L790.1,1053.1c-72.1,0-137.1-43.6-164.7-110.3C597.8,876,613.1,799.1,664.1,748s127.6-66.4,194.2-38.7
		s110,92.8,110,165.1c0,23.5-4.6,46.7-13.5,68.4c-9,21.7-22.1,41.4-38.6,58c-16.6,16.6-36.2,29.8-57.9,38.7
		C836.7,1048.5,813.5,1053.1,790.1,1053.1z M882.2,1257.1c-7.7-8.5-9.6-18.1-11.2-27.3c-4.3-25.2-3.9-50.6-1.5-75.9
		c1.7-17.4,3.7-34.7,5.2-52.1c0.5-6.5,2.9-11.1,8.5-14.7c16.7-10.8,33.3-21.8,49.7-33c4-2.7,7.4-3.4,12.1-1.7
		c38,13.5,74.8,29.3,105.4,56.5c11.7,10.4,21,22.6,26.9,38.4C1021.9,1203.2,957.2,1239.5,882.2,1257.1z M1190.6,891
		c-1.1,29.4-6.3,58.3-14.4,86.7c-1.1,3.8-3.3,5.8-7.2,6.9c-18.2,5.4-36.1,6.3-53.2-3c-12.2-6.6-23.9-14.2-35.8-21.4
		c-14.6-8.9-29.1-18-43.6-27.1c-3-1.9-6-4-9-5.9c-14.4-9-21.4-21.8-20.5-38.9c1.1-21.4,2-42.8,3-65c5.1-2.5,10.7-4.6,15.6-7.9
		c17.5-11.6,35-23.5,52.2-35.6c12.8-8.9,25.9-16.9,40.9-21.7c17.4-5.6,34.4-3.7,51.5,1.1c5.2,1.5,7.9,5,8.8,10.1
		c3.4,19.9,8.1,39.7,10,59.8C1190.9,849.7,1191.3,870.4,1190.6,891z"/>
</g>
<path d="M1468.9,729.3c3.4,2.3,7.3,4.4,11.6,6.1c17.8,7,36.5,5.5,55.2,6c22.3,0.7,44.5,1.2,66.8,1.3c44.4,0.2,89-1.6,133-8.3
	c22.6-3.4,45.1-8.2,68-9.2c72.6-3.2,130.2,55.1,200.3,67.4c25.3,4.5,52.6,3.4,75-9.3s38.2-38.8,33.2-64c7.9,23.3,13.2,48,11,72.6
	s-12.6,49-31.7,64.6c-25.6,20.9-62.1,22.7-94.5,16.5c-32.5-6.2-63.3-19.4-95.9-25.1c-69.3-12.2-158.6,11.7-196.7,73.7
	c-32.4,52.6-89.6,101.9-144.9,129.4c-58.8,29.2-126.4,35.6-183.6,68.7c-53.8,31.2-89.6,81.7-124.2,131.8
	c-33.5,48.5-81.7,88.3-130.8,120.7c-48.2,31.7-100.7,56.3-155.9,72.9S852.3,1470,794.6,1470l178.3-568.1
	c46.4-148,92.9-306,179.2-436.6c25.4-38.4,55.5-74,92.3-102c65.1-49.5,151.1-68.7,231.1-77.8c95.6-10.9,196.2-10.9,292.1-4.6
	c91,6,180.3,25,264.9,59.6c51.6,21,104,44.7,159.7,45.3c55.7,0.6,116.2-29,131.7-82.5c9,81.5-47.1,165.5-126,188.3
	c-109.6,31.7-234-45.5-337.7,2c-27.7,12.7-50.9,33.3-75,52.1c-30,23.5-61.3,47.3-97.5,58.3c-43.4,13.2-85.6,24.8-131.1,28.3
	c-24.3,1.9-49.4,2.1-71.5,12.2C1449.4,661.1,1437.2,707.3,1468.9,729.3z"/>
</svg>
